<svg width="16" height="22" viewBox="0 0 16 22" fill="none" xmlns="http://www.w3.org/2000/svg">
<path d="M15.5089 8.2432H15.9464V8.24319L15.5089 8.2432ZM8.75089 20.7836L8.42536 20.4913L8.42534 20.4914L8.75089 20.7836ZM7.78034 20.7836L8.10588 20.4913L8.10586 20.4913L7.78034 20.7836ZM8.26561 0.5625C4.03004 0.5625 0.584869 4.00767 0.584869 8.2432H1.45987C1.45987 4.49092 4.51329 1.4375 8.26561 1.4375V0.5625ZM15.9464 8.24319C15.9463 4.00768 12.5011 0.5625 8.26561 0.5625V1.4375C12.0179 1.4375 15.0713 4.49092 15.0714 8.24321L15.9464 8.24319ZM9.07641 21.0759C9.22058 20.9154 10.9256 19.0019 12.5971 16.4999C13.4329 15.249 14.2662 13.8422 14.8919 12.4274C15.5151 11.018 15.9464 9.56944 15.9464 8.2432H15.0714C15.0714 9.39525 14.6924 10.715 14.0916 12.0735C13.4932 13.4267 12.6888 14.7877 11.8696 16.0138C10.2312 18.4661 8.55717 20.3445 8.42536 20.4913L9.07641 21.0759ZM7.4548 21.0759C7.88806 21.5585 8.64404 21.5575 9.07643 21.0759L8.42534 20.4914C8.34023 20.5862 8.19105 20.5862 8.10588 20.4913L7.4548 21.0759ZM0.584869 8.2432C0.584869 9.56944 1.01613 11.018 1.63937 12.4274C2.26501 13.8422 3.0983 15.249 3.93408 16.4999C5.60566 19.0019 7.31064 20.9154 7.45481 21.0759L8.10586 20.4913C7.97406 20.3445 6.30006 18.4661 4.66164 16.0138C3.84243 14.7877 3.03798 13.4267 2.43962 12.0735C1.83886 10.715 1.45987 9.39525 1.45987 8.2432H0.584869ZM8.26561 11.45C6.49779 11.45 5.05889 10.011 5.05889 8.2432H4.18389C4.18389 10.4943 6.01453 12.325 8.26561 12.325V11.45ZM11.4723 8.24324C11.4723 10.0111 10.0334 11.45 8.26561 11.45V12.325C10.5167 12.325 12.3473 10.4943 12.3473 8.24324H11.4723ZM8.26561 5.03648C10.0334 5.03648 11.4723 6.4754 11.4723 8.24324H12.3473C12.3473 5.99217 10.5167 4.16148 8.26561 4.16148V5.03648ZM5.05889 8.2432C5.05889 6.47538 6.49782 5.03648 8.26561 5.03648V4.16148C6.01458 4.16148 4.18389 5.99212 4.18389 8.2432H5.05889Z" fill="#444444"/>
</svg>
