<svg width="15" height="15" viewBox="0 0 15 15" fill="none" xmlns="http://www.w3.org/2000/svg">
<path d="M12.8125 1.25H12.1875C12.015 1.25 11.875 1.39001 11.875 1.56251C11.875 1.73501 12.015 1.87499 12.1875 1.87499H12.8125C13.6744 1.87499 14.375 2.57562 14.375 3.43748V12.8125C14.375 13.6744 13.6743 14.375 12.8125 14.375H2.18751C1.32562 14.375 0.62502 13.6743 0.62502 12.8125V3.43748C0.62499 2.57562 1.32562 1.87499 2.18751 1.87499H2.8125C2.985 1.87499 3.12501 1.73498 3.12501 1.56248C3.12501 1.38998 2.985 1.25 2.8125 1.25H2.18751C0.98124 1.25 0 2.23124 0 3.43748V12.8125C0 14.0188 0.98124 15 2.18751 15H12.8125C14.0188 15 15 14.0188 15 12.8125V3.43748C15 2.23124 14.0188 1.25 12.8125 1.25Z" fill="#444444"/>
<path d="M9.68753 1.25H5.31251C5.14001 1.25 5 1.39001 5 1.56251C5 1.73501 5.14001 1.87499 5.31251 1.87499H9.6875C9.86 1.87499 10 1.73498 10 1.56248C10 1.38998 9.86003 1.25 9.68753 1.25Z" fill="#444444"/>
<path d="M14.6875 4.375H0.31251C0.14001 4.375 0 4.51501 0 4.68751C0 4.86001 0.14001 5.00002 0.31251 5.00002H14.6875C14.86 5.00002 15 4.86001 15 4.68751C15 4.51501 14.86 4.375 14.6875 4.375Z" fill="#444444"/>
<path d="M4.06251 0C3.89001 0 3.75 0.14001 3.75 0.31251V2.8125C3.75 2.985 3.89001 3.12501 4.06251 3.12501C4.23501 3.12501 4.37502 2.985 4.37502 2.8125V0.31251C4.37499 0.14001 4.23501 0 4.06251 0Z" fill="#444444"/>
<path d="M10.9375 0C10.765 0 10.625 0.14001 10.625 0.31251V2.8125C10.625 2.985 10.765 3.12501 10.9375 3.12501C11.11 3.12501 11.25 2.985 11.25 2.8125V0.31251C11.25 0.14001 11.11 0 10.9375 0Z" fill="#444444"/>
</svg>
