<svg width="22" height="22" viewBox="0 0 22 22" fill="none" xmlns="http://www.w3.org/2000/svg">
<path fill-rule="evenodd" clip-rule="evenodd" d="M16.3993 13.7067L20.4401 16.4014C20.9627 16.7489 21.1194 17.446 20.7958 17.9837L19.7798 19.6724C19.4678 20.2034 18.9622 20.593 18.3692 20.7592C17.8595 20.897 17.3336 20.9657 16.8056 20.9635C14.5114 20.9635 11.1736 19.7578 6.68997 15.2746C1.05363 9.63759 0.595894 5.81139 1.20435 3.59439C1.37079 3.00145 1.7603 2.49595 2.29122 2.18382L3.98092 1.16882C4.51851 0.845657 5.21519 1.00246 5.56244 1.5248L8.25718 5.56558C8.59601 6.07852 8.48424 6.7657 8.00034 7.14484L6.48798 8.32152C6.28845 8.474 6.23168 8.75014 6.35492 8.96893L6.47769 9.19283L6.4777 9.19285C6.88226 9.9337 7.38694 10.8579 9.24763 12.7193C11.1083 14.5806 12.0318 15.0843 12.7741 15.4889L12.998 15.6123C13.2168 15.7338 13.4918 15.676 13.643 15.4765L14.8201 13.9632C15.1992 13.4791 15.8865 13.3675 16.3993 13.7067ZM19.2088 19.332L20.2225 17.6423C20.3631 17.4091 20.295 17.1066 20.0682 16.956L16.0278 14.2613C15.8052 14.1143 15.5071 14.1626 15.3424 14.3724L14.1658 15.8851C13.8138 16.3454 13.1768 16.4768 12.6713 16.1935L12.4528 16.073L12.452 16.0726C11.6726 15.6475 10.7029 15.1186 8.77363 13.1897C6.84444 11.2608 6.31551 10.2907 5.8904 9.51105L5.88993 9.51018L5.76981 9.29193C5.48638 8.78644 5.61784 8.14952 6.07819 7.79751L7.5909 6.62082C7.80081 6.45618 7.84915 6.15798 7.70201 5.93548L6.4734 4.09275L5.00958 1.89505C4.8589 1.66839 4.55652 1.60036 4.32326 1.74071L2.63355 2.75439C2.24977 2.97872 1.96759 3.34281 1.84611 3.77041C1.2842 5.81739 1.74958 9.39275 7.16069 14.8039C12.5718 20.215 16.1475 20.6804 18.1941 20.1185C18.6212 19.9972 18.9849 19.7153 19.2088 19.332Z" fill="#444444"/>
<path d="M20.4401 16.4014L20.3846 16.4846L20.3847 16.4847L20.4401 16.4014ZM16.3993 13.7067L16.4548 13.6235L16.4545 13.6233L16.3993 13.7067ZM20.7958 17.9837L20.7101 17.9321L20.7101 17.9321L20.7958 17.9837ZM19.7798 19.6724L19.6941 19.6208L19.6935 19.6217L19.7798 19.6724ZM18.3692 20.7592L18.3953 20.8558L18.3962 20.8555L18.3692 20.7592ZM16.8056 20.9635L16.806 20.8635H16.8056V20.9635ZM6.68997 15.2746L6.61925 15.3453L6.61926 15.3453L6.68997 15.2746ZM1.20435 3.59439L1.10807 3.56737L1.10792 3.56792L1.20435 3.59439ZM2.29122 2.18382L2.3419 2.27003L2.34271 2.26955L2.29122 2.18382ZM3.98092 1.16882L4.03242 1.25454L4.03244 1.25452L3.98092 1.16882ZM5.56244 1.5248L5.47917 1.58016L5.47925 1.58028L5.56244 1.5248ZM8.25718 5.56558L8.34062 5.51046L8.34038 5.5101L8.25718 5.56558ZM8.00034 7.14484L8.06175 7.22376L8.06201 7.22355L8.00034 7.14484ZM6.48798 8.32152L6.5487 8.40098L6.54939 8.40045L6.48798 8.32152ZM6.35492 8.96893L6.44261 8.92085L6.44205 8.91986L6.35492 8.96893ZM6.47769 9.19283L6.38994 9.24095L6.39194 9.24428L6.47769 9.19283ZM6.4777 9.19285L6.56554 9.14488L6.56345 9.1414L6.4777 9.19285ZM9.24763 12.7193L9.31835 12.6486L9.24763 12.7193ZM12.7741 15.4889L12.8223 15.4013L12.8219 15.4011L12.7741 15.4889ZM12.998 15.6123L13.0465 15.5249L13.0462 15.5247L12.998 15.6123ZM13.643 15.4765L13.5641 15.4151L13.5634 15.4161L13.643 15.4765ZM14.8201 13.9632L14.7413 13.9015L14.7411 13.9018L14.8201 13.9632ZM20.2225 17.6423L20.1369 17.5907L20.1368 17.5909L20.2225 17.6423ZM19.2088 19.332L19.1231 19.2806L19.1225 19.2816L19.2088 19.332ZM20.0682 16.956L20.0127 17.0392L20.0129 17.0393L20.0682 16.956ZM16.0278 14.2613L16.0833 14.1781L16.0829 14.1778L16.0278 14.2613ZM15.3424 14.3724L15.2638 14.3106L15.2635 14.311L15.3424 14.3724ZM14.1658 15.8851L14.0868 15.8237L14.0863 15.8243L14.1658 15.8851ZM12.6713 16.1935L12.7202 16.1062L12.7196 16.1059L12.6713 16.1935ZM12.4528 16.073L12.501 15.9854L12.5007 15.9853L12.4528 16.073ZM12.452 16.0726L12.4999 15.9848L12.4998 15.9848L12.452 16.0726ZM8.77363 13.1897L8.70293 13.2604H8.70293L8.77363 13.1897ZM5.8904 9.51105L5.80258 9.55887L5.8026 9.55892L5.8904 9.51105ZM5.88993 9.51018L5.97775 9.46235L5.97754 9.46196L5.88993 9.51018ZM5.76981 9.29193L5.85742 9.24372L5.85704 9.24303L5.76981 9.29193ZM6.07819 7.79751L6.13894 7.87695L6.13959 7.87644L6.07819 7.79751ZM7.5909 6.62082L7.6523 6.69976L7.65262 6.69951L7.5909 6.62082ZM7.70201 5.93548L7.78543 5.88032L7.78522 5.88001L7.70201 5.93548ZM6.4734 4.09275L6.39017 4.14819L6.3902 4.14823L6.4734 4.09275ZM5.00958 1.89505L4.9263 1.95041L4.92635 1.95049L5.00958 1.89505ZM4.32326 1.74071L4.37471 1.82646L4.37482 1.82639L4.32326 1.74071ZM2.63355 2.75439L2.68402 2.84073L2.685 2.84014L2.63355 2.75439ZM1.84611 3.77041L1.74991 3.74308L1.74968 3.74394L1.84611 3.77041ZM7.16069 14.8039L7.08998 14.8746L7.16069 14.8039ZM18.1941 20.1185L18.2206 20.2149L18.2215 20.2147L18.1941 20.1185ZM20.4956 16.3182L16.4548 13.6235L16.3438 13.7899L20.3846 16.4846L20.4956 16.3182ZM20.8815 18.0352C21.2327 17.4517 21.0626 16.6952 20.4955 16.3181L20.3847 16.4847C20.8628 16.8025 21.0061 17.4402 20.7101 17.9321L20.8815 18.0352ZM19.8654 19.7239L20.8815 18.0352L20.7101 17.9321L19.6941 19.6208L19.8654 19.7239ZM18.3962 20.8555C19.0141 20.6823 19.5409 20.2764 19.866 19.723L19.6935 19.6217C19.3947 20.1305 18.9104 20.5037 18.3422 20.6629L18.3962 20.8555ZM16.8051 21.0635C17.3421 21.0658 17.8769 20.9959 18.3953 20.8558L18.3431 20.6627C17.842 20.7982 17.325 20.8657 16.806 20.8635L16.8051 21.0635ZM6.61926 15.3453C11.1125 19.8382 14.4743 21.0635 16.8056 21.0635V20.8635C14.5484 20.8635 11.2346 19.6774 6.76068 15.2039L6.61926 15.3453ZM1.10792 3.56792C0.485981 5.83403 0.970259 9.69563 6.61925 15.3453L6.76068 15.2039C1.13701 9.57954 0.705807 5.78874 1.30079 3.62086L1.10792 3.56792ZM2.24054 2.09762C1.68735 2.42284 1.28149 2.94954 1.10807 3.56737L1.30063 3.62141C1.46008 3.05335 1.83325 2.56906 2.3419 2.27003L2.24054 2.09762ZM3.92943 1.08309L2.23972 2.0981L2.34271 2.26955L4.03242 1.25454L3.92943 1.08309ZM5.64572 1.46944C5.26887 0.902573 4.5128 0.732409 3.9294 1.08311L4.03244 1.25452C4.52421 0.958905 5.16152 1.10235 5.47917 1.58016L5.64572 1.46944ZM8.34038 5.5101L5.64564 1.46932L5.47925 1.58028L8.17398 5.62106L8.34038 5.5101ZM8.06201 7.22355C8.58692 6.81228 8.70817 6.06688 8.34062 5.51046L8.17374 5.6207C8.48386 6.09017 8.38156 6.71911 7.93866 7.06612L8.06201 7.22355ZM6.54939 8.40045L8.06175 7.22376L7.93893 7.06591L6.42657 8.2426L6.54939 8.40045ZM6.44205 8.91986C6.34328 8.74451 6.38877 8.52319 6.5487 8.40098L6.42726 8.24207C6.18812 8.42481 6.12008 8.75577 6.26779 9.01801L6.44205 8.91986ZM6.56537 9.14475L6.4426 8.92085L6.26724 9.01701L6.39 9.24091L6.56537 9.14475ZM6.56345 9.1414L6.56344 9.14138L6.39194 9.24428L6.39195 9.2443L6.56345 9.1414ZM9.31835 12.6486C7.46516 10.7947 6.966 9.87841 6.56546 9.14492L6.38993 9.24077C6.79851 9.989 7.30872 10.9211 9.17691 12.79L9.31835 12.6486ZM12.8219 15.4011C12.0871 15.0005 11.1715 14.5024 9.31835 12.6486L9.17691 12.79C11.0451 14.6588 11.9766 15.1681 12.7262 15.5767L12.8219 15.4011ZM13.0462 15.5247L12.8223 15.4013L12.7258 15.5764L12.9497 15.6999L13.0462 15.5247ZM13.5634 15.4161C13.4422 15.5759 13.2218 15.6223 13.0465 15.5249L12.9494 15.6997C13.2117 15.8454 13.5414 15.7761 13.7227 15.537L13.5634 15.4161ZM14.7411 13.9018L13.5641 15.4151L13.722 15.5379L14.899 14.0246L14.7411 13.9018ZM16.4545 13.6233C15.8982 13.2553 15.1526 13.3764 14.7413 13.9015L14.8988 14.0248C15.2458 13.5818 15.8748 13.4796 16.3442 13.7901L16.4545 13.6233ZM20.1368 17.5909L19.1231 19.2806L19.2946 19.3835L20.3083 17.6937L20.1368 17.5909ZM20.0129 17.0393C20.1951 17.1603 20.2498 17.4033 20.1369 17.5907L20.3082 17.6939C20.4763 17.4149 20.3949 17.0528 20.1235 16.8727L20.0129 17.0393ZM15.9723 14.3444L20.0127 17.0392L20.1237 16.8728L16.0833 14.1781L15.9723 14.3444ZM15.4211 14.4341C15.5536 14.2653 15.7935 14.2264 15.9727 14.3447L16.0829 14.1778C15.8169 14.0022 15.4606 14.0599 15.2638 14.3106L15.4211 14.4341ZM14.2447 15.9465L15.4214 14.4338L15.2635 14.311L14.0868 15.8237L14.2447 15.9465ZM12.6224 16.2807C13.1713 16.5884 13.863 16.4457 14.2452 15.9458L14.0863 15.8243C13.7645 16.2451 13.1823 16.3653 12.7202 16.1062L12.6224 16.2807ZM12.4045 16.1606L12.6231 16.281L12.7196 16.1059L12.501 15.9854L12.4045 16.1606ZM12.404 16.1603L12.4048 16.1608L12.5007 15.9853L12.4999 15.9848L12.404 16.1603ZM8.70293 13.2604C10.6398 15.1969 11.6175 15.7313 12.4041 16.1604L12.4998 15.9848C11.7278 15.5637 10.766 15.0402 8.84434 13.119L8.70293 13.2604ZM5.8026 9.55892C6.23168 10.3459 6.76614 11.3239 8.70293 13.2604L8.84434 13.119C6.92275 11.1977 6.39934 10.2356 5.9782 9.46318L5.8026 9.55892ZM5.80211 9.558L5.80258 9.55887L5.97822 9.46322L5.97775 9.46236L5.80211 9.558ZM5.6822 9.34015L5.80232 9.5584L5.97754 9.46196L5.85742 9.24372L5.6822 9.34015ZM6.01745 7.71807C5.51757 8.10031 5.37481 8.79193 5.68259 9.34084L5.85704 9.24303C5.59795 8.78095 5.71812 8.19873 6.13894 7.87695L6.01745 7.71807ZM7.52951 6.54189L6.0168 7.71858L6.13959 7.87644L7.6523 6.69975L7.52951 6.54189ZM7.6186 5.99064C7.737 6.16968 7.6981 6.40965 7.52919 6.54214L7.65262 6.69951C7.90351 6.50272 7.9613 6.14628 7.78543 5.88032L7.6186 5.99064ZM6.3902 4.14823L7.61881 5.99096L7.78522 5.88001L6.5566 4.03728L6.3902 4.14823ZM4.92635 1.95049L6.39017 4.14819L6.55663 4.03732L5.09281 1.83962L4.92635 1.95049ZM4.37482 1.82639C4.56225 1.71361 4.80522 1.76828 4.9263 1.95041L5.09286 1.83969C4.91257 1.56849 4.55079 1.4871 4.27171 1.65502L4.37482 1.82639ZM2.685 2.84014L4.37471 1.82646L4.27182 1.65495L2.58211 2.66864L2.685 2.84014ZM1.9423 3.79774C2.05673 3.39497 2.32252 3.05202 2.68402 2.84072L2.58309 2.66806C2.17702 2.90541 1.87845 3.29065 1.74992 3.74309L1.9423 3.79774ZM7.2314 14.7332C1.83156 9.33331 1.39446 5.79347 1.94254 3.79689L1.74968 3.74394C1.17393 5.84131 1.6676 9.45219 7.08998 14.8746L7.2314 14.7332ZM18.1677 20.0221C16.1714 20.5701 12.6312 20.133 7.2314 14.7332L7.08998 14.8746C12.5124 20.297 16.1236 20.7907 18.2206 20.2149L18.1677 20.0221ZM19.1225 19.2816C18.9116 19.6426 18.5691 19.908 18.1668 20.0223L18.2215 20.2147C18.6734 20.0863 19.0582 19.7881 19.2952 19.3825L19.1225 19.2816Z" fill="#444444"/>
<path d="M12.3123 4.3294C15.4344 4.33287 17.9644 6.86297 17.9679 9.98504C17.9679 10.1688 18.1169 10.3177 18.3006 10.3177C18.4844 10.3177 18.6333 10.1688 18.6333 9.98504C18.6294 6.49564 15.8017 3.66788 12.3123 3.66406C12.1286 3.66406 11.9796 3.81299 11.9796 3.99673C11.9796 4.18048 12.1286 4.3294 12.3123 4.3294Z" fill="#444444"/>
<path d="M12.3123 6.3255C14.3324 6.32788 15.9695 7.96491 15.9718 9.98503C15.9718 10.1688 16.1208 10.3177 16.3045 10.3177C16.4883 10.3177 16.6372 10.1688 16.6372 9.98503C16.6344 7.59758 14.6997 5.66289 12.3123 5.66016C12.1286 5.66016 11.9796 5.80908 11.9796 5.99283C11.9796 6.17657 12.1286 6.3255 12.3123 6.3255Z" fill="#444444"/>
<path d="M12.3123 8.32159C13.2305 8.32268 13.9746 9.06678 13.9757 9.98502C13.9757 10.1688 14.1247 10.3177 14.3084 10.3177C14.4921 10.3177 14.6411 10.1688 14.6411 9.98502C14.6396 8.69949 13.5979 7.65769 12.3123 7.65625C12.1286 7.65625 11.9796 7.80518 11.9796 7.98892C11.9796 8.17266 12.1286 8.32159 12.3123 8.32159Z" fill="#444444"/>
</svg>
