<svg width="20" height="20" viewBox="0 0 20 20" fill="none" xmlns="http://www.w3.org/2000/svg">
<path fill-rule="evenodd" clip-rule="evenodd" d="M0 9.9932C0 4.48305 4.48305 0 9.9932 0C15.5034 0 19.9864 4.48305 19.9864 9.9932C19.9864 15.5033 15.5033 19.9864 9.9932 19.9864C4.48305 19.9864 0 15.5033 0 9.9932ZM0.868961 9.9932C0.868961 15.0246 4.96183 19.1174 9.9932 19.1174C15.0246 19.1174 19.1174 15.0246 19.1174 9.9932C19.1174 4.96183 15.0246 0.868961 9.9932 0.868961C4.96183 0.868961 0.868961 4.96183 0.868961 9.9932Z" fill="#444444"/>
<path d="M9.99321 4.3457C8.3161 4.3457 6.95178 5.70998 6.95178 7.38713V8.25609C6.95178 8.49593 7.14645 8.69059 7.38628 8.69059C7.62612 8.69059 7.82078 8.49593 7.82078 8.25609V7.38713C7.82078 6.18965 8.79492 5.21466 9.99321 5.21466C11.1915 5.21466 12.1656 6.18965 12.1656 7.38709V8.04489C12.1656 8.62538 11.9397 9.17108 11.5287 9.58212L10.4494 10.6614C9.87504 11.2367 9.55871 11.9996 9.55871 12.8121V13.4699C9.55871 13.7097 9.75337 13.9044 9.99321 13.9044C10.233 13.9044 10.4277 13.7098 10.4277 13.4699V12.8121C10.4277 12.2316 10.6537 11.6859 11.0647 11.2749L12.1439 10.1956C12.7183 9.62037 13.0346 8.85739 13.0346 8.04493V7.38713C13.0346 5.70998 11.6704 4.3457 9.99321 4.3457Z" fill="#444444"/>
<path d="M9.9932 14.7734C9.51352 14.7734 9.12424 15.1636 9.12424 15.6424C9.12424 16.1212 9.51352 16.5114 9.9932 16.5114C10.4729 16.5114 10.8622 16.1212 10.8622 15.6424C10.8622 15.1636 10.4729 14.7734 9.9932 14.7734Z" fill="#444444"/>
</svg>
