<svg width="8" height="10" viewBox="0 0 8 10" fill="none" xmlns="http://www.w3.org/2000/svg">
<path fill-rule="evenodd" clip-rule="evenodd" d="M0 3.62161C0 1.62465 1.60213 0 3.57143 0C5.54071 0 7.14282 1.62465 7.14286 3.62161C7.14286 6.09989 3.94678 9.73816 3.8107 9.89183C3.68312 10.0359 3.45997 10.0362 3.33215 9.89183C3.19608 9.73816 0 6.09989 0 3.62161ZM1.77457 3.62161C1.77457 4.62633 2.58063 5.44374 3.57143 5.44374C4.56221 5.44374 5.36827 4.62635 5.36827 3.62163C5.36827 2.6169 4.56221 1.79949 3.57143 1.79949C2.58065 1.79949 1.77457 2.61688 1.77457 3.62161Z" fill="#A1A1A1"/>
</svg>
