<svg width="17" height="20" viewBox="0 0 17 20" fill="none" xmlns="http://www.w3.org/2000/svg">
<path fill-rule="evenodd" clip-rule="evenodd" d="M15.2019 14.4835L16.6335 16.8685C16.711 16.9968 16.7127 17.1577 16.6393 17.2877C16.5652 17.4186 16.426 17.4994 16.276 17.4994H0.442683C0.292683 17.4994 0.153542 17.4185 0.0793624 17.2877C0.00600297 17.1577 0.00768266 16.9968 0.0851827 16.8685L1.51686 14.4835C2.17686 13.3827 2.52604 12.1227 2.52604 10.8385V8.74934C2.52604 5.53352 5.14354 2.91602 8.35936 2.91602C11.5752 2.91602 14.1927 5.53352 14.1927 8.74934V10.8385C14.1927 12.1227 14.5419 13.3827 15.2019 14.4835ZM2.23104 14.9118L1.17854 16.666H15.5402L14.4869 14.9118C13.7494 13.6818 13.3594 12.2735 13.3594 10.8385V8.74934C13.3594 5.99184 11.1169 3.74934 8.35936 3.74934C5.60186 3.74934 3.35936 5.99184 3.35936 8.74934V10.8385C3.35936 12.2735 2.96936 13.6818 2.23104 14.9118Z" fill="#444444"/>
<path d="M8.35937 0C7.44019 0 6.69269 0.7475 6.69269 1.66668V3.33336C6.69269 3.56332 6.87937 3.75 7.10937 3.75C7.33937 3.75 7.52605 3.56332 7.52605 3.33332V1.66668C7.52605 1.20668 7.89937 0.833359 8.35937 0.833359C8.81937 0.833359 9.19269 1.20668 9.19269 1.66668V3.33336C9.19269 3.56332 9.37937 3.75 9.60937 3.75C9.83937 3.75 10.026 3.56332 10.026 3.33332V1.66668C10.026 0.7475 9.27855 0 8.35937 0Z" fill="#444444"/>
<path d="M10.1627 16.8733C10.0452 16.675 9.791 16.61 9.59186 16.7241C9.39268 16.8408 9.32604 17.0966 9.44268 17.2949C9.551 17.4791 9.61018 17.6999 9.61018 17.9174C9.61018 18.6066 9.04936 19.1674 8.36018 19.1674C7.671 19.1674 7.11018 18.6066 7.11018 17.9174C7.11018 17.6999 7.16936 17.4791 7.27768 17.2949C7.3935 17.0958 7.32686 16.8408 7.1285 16.7241C6.92768 16.6099 6.67432 16.6749 6.55768 16.8733C6.3735 17.1883 6.276 17.5491 6.276 17.9175C6.27604 19.0666 7.21018 20.0008 8.35936 20.0008C9.50854 20.0008 10.4427 19.0666 10.4444 17.9175C10.4444 17.5491 10.3469 17.1883 10.1627 16.8733Z" fill="#444444"/>
</svg>
