<svg width="20" height="13" viewBox="0 0 20 13" fill="none" xmlns="http://www.w3.org/2000/svg">
<path fill-rule="evenodd" clip-rule="evenodd" d="M2.08332 0H17.9167C19.065 0 20 0.911623 20 2.03127V10.9688C20 12.0884 19.065 13 17.9167 13H2.08332C0.935002 13 0 12.0884 0 10.9688V2.03127C0 0.911623 0.935002 0 2.08332 0ZM17.9167 12.1875C18.6059 12.1875 19.1667 11.6407 19.1667 10.9687H19.1667V2.03127C19.1667 1.35932 18.6059 0.812524 17.9167 0.812524H2.08332C1.39414 0.812524 0.833322 1.35932 0.833322 2.03127V10.9687C0.833322 11.6407 1.39414 12.1875 2.08332 12.1875H17.9167Z" fill="#444444"/>
<path fill-rule="evenodd" clip-rule="evenodd" d="M0.416679 3H19.5833C19.8133 3 20 3.16801 20 3.37501V5.62499C20 5.83199 19.8133 6 19.5833 6H0.416679C0.186679 6 0 5.83199 0 5.62499V3.37501C0 3.16801 0.186679 3 0.416679 3ZM0.833319 5.24998H19.1666V3.74998H0.833319V5.24998Z" fill="#444444"/>
</svg>
