<svg width="20" height="19" viewBox="0 0 20 19" fill="none" xmlns="http://www.w3.org/2000/svg">
<path fill-rule="evenodd" clip-rule="evenodd" d="M4.95825 0H17.8909C19.0597 0.00838182 20.0021 0.959166 20 2.12788V5.00348C20 5.18219 19.8634 5.34413 19.6845 5.34413H16.3968V15.3048C16.4047 16.816 15.1865 18.0478 13.6752 18.0567H13.6674C13.6403 18.0567 13.6146 18.0524 13.5861 18.0477C13.5563 18.0427 13.5232 18.0372 13.4818 18.0355V18.0567H2.59109V18.0379C1.17409 17.9721 0 16.7722 0 15.3051V13.7378C0 13.559 0.13664 13.4008 0.315505 13.4008H2.83939L2.92273 2.0129C2.92273 0.904605 3.83587 0 4.95825 0ZM2.73058 17.4089H2.73279H11.9019C11.8643 17.3569 11.8273 17.3267 11.7911 17.2971C11.7709 17.2806 11.751 17.2643 11.7314 17.2446C11.2166 16.7284 10.9286 16.0284 10.9312 15.2994V14.0486H0.647773V15.3048C0.647773 16.4567 1.57847 17.4089 2.73058 17.4089ZM15.749 15.3044C15.749 16.4567 14.8273 17.4089 13.6747 17.4089H13.6681C12.5098 17.4005 11.5763 16.4578 11.5789 15.2995V13.7378C11.5799 13.5564 11.4365 13.4071 11.2551 13.4008H3.48716L3.5705 2.01512C3.5705 1.26186 4.19297 0.647773 4.95825 0.647773H16.3618C15.9927 1.05263 15.749 1.56487 15.749 2.13658V15.3044ZM19.3522 4.69636V2.13357V2.1312C19.356 1.31864 18.7029 0.655839 17.8905 0.647773H17.8815C17.0711 0.647773 16.3968 1.32528 16.3968 2.13594V4.69636H19.3522Z" fill="#444444"/>
<path d="M13.4818 10.041H5.7085C5.52963 10.041 5.38461 10.186 5.38461 10.3649C5.38461 10.5438 5.52963 10.6888 5.7085 10.6888H13.4818C13.6606 10.6888 13.8057 10.5438 13.8057 10.3649C13.8057 10.186 13.6606 10.041 13.4818 10.041Z" fill="#444444"/>
<path d="M13.4818 6.25H5.7085C5.52963 6.25 5.38461 6.39502 5.38461 6.57389C5.38461 6.75275 5.52963 6.89777 5.7085 6.89777H13.4818C13.6606 6.89777 13.8057 6.75275 13.8057 6.57389C13.8057 6.39502 13.6606 6.25 13.4818 6.25Z" fill="#444444"/>
<path d="M13.4818 2.5H5.7085C5.52963 2.5 5.38461 2.64502 5.38461 2.82389C5.38461 3.00275 5.52963 3.14777 5.7085 3.14777H13.4818C13.6606 3.14777 13.8057 3.00275 13.8057 2.82389C13.8057 2.64502 13.6606 2.5 13.4818 2.5Z" fill="#444444"/>
<path d="M13.4818 11.5391H5.7085C5.52963 11.5391 5.38461 11.6841 5.38461 11.8629C5.38461 12.0418 5.52963 12.1868 5.7085 12.1868H13.4818C13.6606 12.1868 13.8057 12.0418 13.8057 11.8629C13.8057 11.6841 13.6606 11.5391 13.4818 11.5391Z" fill="#444444"/>
<path d="M13.4818 7.74805H5.7085C5.52963 7.74805 5.38461 7.89307 5.38461 8.07193C5.38461 8.2508 5.52963 8.39582 5.7085 8.39582H13.4818C13.6606 8.39582 13.8057 8.2508 13.8057 8.07193C13.8057 7.89307 13.6606 7.74805 13.4818 7.74805Z" fill="#444444"/>
<path d="M13.4818 3.99805H5.7085C5.52963 3.99805 5.38461 4.14307 5.38461 4.32193C5.38461 4.5008 5.52963 4.64582 5.7085 4.64582H13.4818C13.6606 4.64582 13.8057 4.5008 13.8057 4.32193C13.8057 4.14307 13.6606 3.99805 13.4818 3.99805Z" fill="#444444"/>
</svg>
