<svg width="22" height="22" viewBox="0 0 22 22" fill="none" xmlns="http://www.w3.org/2000/svg">
<path d="M20.5294 8.72278L20.6358 8.23423L20.6356 8.23419L20.5294 8.72278ZM18.9922 8.38861L18.517 8.54385L18.6059 8.81631L18.886 8.8772L18.9922 8.38861ZM20.5294 13.2772L20.6356 13.7658L20.6358 13.7658L20.5294 13.2772ZM18.9922 13.6114L18.886 13.1228L18.6059 13.1837L18.517 13.4561L18.9922 13.6114ZM18.4976 14.8043L18.0518 14.5777L17.9219 14.8334L18.077 15.0747L18.4976 14.8043ZM19.3485 16.128L19.7692 15.8577L19.7691 15.8576L19.3485 16.128ZM16.8737 19.2684L16.5202 18.9149L16.52 18.915L16.8737 19.2684ZM16.128 19.3485L15.8576 19.7691L15.8577 19.7692L16.128 19.3485ZM14.8043 18.4976L15.0747 18.077L14.8334 17.9219L14.5777 18.0518L14.8043 18.4976ZM13.6114 18.9922L13.4561 18.517L13.1837 18.6059L13.1228 18.886L13.6114 18.9922ZM13.2772 20.5294L12.7886 20.4232L12.7886 20.4233L13.2772 20.5294ZM8.72278 20.5294L9.21138 20.4233L9.21137 20.4232L8.72278 20.5294ZM8.38861 18.9922L8.8772 18.886L8.81631 18.6059L8.54385 18.517L8.38861 18.9922ZM7.19568 18.4976L7.42225 18.0518L7.16656 17.9219L6.92529 18.077L7.19568 18.4976ZM5.87198 19.3485L6.14228 19.7692L6.14236 19.7691L5.87198 19.3485ZM2.65146 16.128L2.23087 15.8576L2.23082 15.8577L2.65146 16.128ZM3.50244 14.8043L3.92303 15.0747L4.07813 14.8334L3.94816 14.5777L3.50244 14.8043ZM3.00775 13.6114L3.48304 13.4561L3.39405 13.1837L3.11397 13.1228L3.00775 13.6114ZM1.47058 13.2772L1.36419 13.7658L1.36437 13.7658L1.47058 13.2772ZM1.47058 8.72278L1.36437 8.23419L1.36419 8.23423L1.47058 8.72278ZM3.00775 8.38861L3.11397 8.8772L3.39405 8.81631L3.48304 8.54385L3.00775 8.38861ZM3.50244 7.19568L3.94816 7.42225L4.07813 7.16656L3.92303 6.92529L3.50244 7.19568ZM2.65146 5.87198L2.23082 6.14228L2.23087 6.14236L2.65146 5.87198ZM5.87198 2.65146L6.14236 2.23087L6.14228 2.23082L5.87198 2.65146ZM7.19568 3.50244L6.92529 3.92303L7.16656 4.07813L7.42225 3.94816L7.19568 3.50244ZM8.38861 3.00775L8.54385 3.48304L8.81631 3.39405L8.8772 3.11397L8.38861 3.00775ZM8.72278 1.47058L9.21137 1.5768L9.21138 1.57672L8.72278 1.47058ZM13.2772 1.47058L12.7886 1.57672L12.7886 1.5768L13.2772 1.47058ZM13.6114 3.00775L13.1228 3.11397L13.1837 3.39405L13.4561 3.48304L13.6114 3.00775ZM14.8043 3.50244L14.5777 3.94816L14.8334 4.07813L15.0747 3.92303L14.8043 3.50244ZM16.128 2.65146L15.8577 2.23082L15.8576 2.23087L16.128 2.65146ZM19.3485 5.87198L19.7691 6.14236L19.7692 6.14228L19.3485 5.87198ZM18.4976 7.19568L18.077 6.92529L17.9219 7.16656L18.0518 7.42225L18.4976 7.19568ZM20.6356 8.23419L19.0985 7.90002L18.886 8.8772L20.4232 9.21137L20.6356 8.23419ZM21.5 9.30673C21.5 8.7904 21.1401 8.34405 20.6358 8.23423L20.423 9.21133C20.468 9.22113 20.5 9.26093 20.5 9.30673H21.5ZM21.5 12.6933V9.30673H20.5V12.6933H21.5ZM20.6358 13.7658C21.1401 13.6559 21.5 13.2096 21.5 12.6933H20.5C20.5 12.7391 20.468 12.7789 20.423 12.7887L20.6358 13.7658ZM19.0985 14.1L20.6356 13.7658L20.4232 12.7886L18.886 13.1228L19.0985 14.1ZM18.9433 15.0309C19.1504 14.6235 19.3258 14.2005 19.4675 13.7666L18.517 13.4561C18.3913 13.8408 18.2357 14.2161 18.0518 14.5777L18.9433 15.0309ZM19.7691 15.8576L18.9181 14.5339L18.077 15.0747L18.928 16.3984L19.7691 15.8576ZM19.622 17.2273C19.987 16.8623 20.0483 16.292 19.7692 15.8577L18.9279 16.3983C18.9528 16.437 18.9472 16.4878 18.9149 16.5202L19.622 17.2273ZM17.2273 19.622L19.622 17.2273L18.9149 16.5202L16.5202 18.9149L17.2273 19.622ZM15.8577 19.7692C16.2919 20.0482 16.8622 19.9873 17.2274 19.6219L16.52 18.915C16.4879 18.9472 16.4372 18.9529 16.3983 18.9279L15.8577 19.7692ZM14.5339 18.9181L15.8576 19.7691L16.3984 18.928L15.0747 18.077L14.5339 18.9181ZM13.7666 19.4675C14.2005 19.3258 14.6235 19.1504 15.0309 18.9433L14.5777 18.0518C14.2161 18.2357 13.8408 18.3913 13.4561 18.517L13.7666 19.4675ZM13.7658 20.6356L14.1 19.0985L13.1228 18.886L12.7886 20.4232L13.7658 20.6356ZM12.6933 21.5C13.2094 21.5 13.6562 21.1403 13.7658 20.6356L12.7886 20.4233C12.7789 20.4679 12.7393 20.5 12.6933 20.5V21.5ZM9.30673 21.5H12.6933V20.5H9.30673V21.5ZM8.23417 20.6356C8.34381 21.1403 8.7906 21.5 9.30673 21.5V20.5C9.26073 20.5 9.22107 20.4679 9.21138 20.4233L8.23417 20.6356ZM7.90002 19.0985L8.23419 20.6356L9.21137 20.4232L8.8772 18.886L7.90002 19.0985ZM6.96911 18.9433C7.37653 19.1504 7.79955 19.3258 8.23337 19.4675L8.54385 18.517C8.15919 18.3913 7.78387 18.2357 7.42225 18.0518L6.96911 18.9433ZM6.14236 19.7691L7.46606 18.9181L6.92529 18.077L5.60159 18.928L6.14236 19.7691ZM4.77273 19.622C5.13773 19.987 5.70795 20.0483 6.14228 19.7692L5.60168 18.9279C5.56298 18.9528 5.51218 18.9472 5.47984 18.9149L4.77273 19.622ZM2.37801 17.2273L4.77273 19.622L5.47984 18.9149L3.08512 16.5202L2.37801 17.2273ZM2.23082 15.8577C1.95173 16.292 2.01302 16.8623 2.37801 17.2273L3.08512 16.5202C3.05278 16.4878 3.04723 16.437 3.0721 16.3983L2.23082 15.8577ZM3.08186 14.5339L2.23087 15.8576L3.07204 16.3984L3.92303 15.0747L3.08186 14.5339ZM2.53246 13.7666C2.67416 14.2005 2.84961 14.6235 3.05672 15.0309L3.94816 14.5777C3.76434 14.2161 3.60868 13.8408 3.48304 13.4561L2.53246 13.7666ZM1.36437 13.7658L2.90154 14.1L3.11397 13.1228L1.5768 12.7886L1.36437 13.7658ZM0.5 12.6933C0.5 13.2096 0.859893 13.6559 1.36419 13.7658L1.57698 12.7887C1.53195 12.7789 1.5 12.7391 1.5 12.6933H0.5ZM0.5 9.30673V12.6933H1.5V9.30673H0.5ZM1.36419 8.23423C0.859893 8.34405 0.5 8.7904 0.5 9.30673H1.5C1.5 9.26093 1.53195 9.22113 1.57698 9.21133L1.36419 8.23423ZM2.90154 7.90002L1.36437 8.23419L1.5768 9.21137L3.11397 8.8772L2.90154 7.90002ZM3.05672 6.96911C2.84961 7.37653 2.67416 7.79955 2.53246 8.23337L3.48304 8.54385C3.60868 8.15919 3.76434 7.78387 3.94816 7.42225L3.05672 6.96911ZM2.23087 6.14236L3.08186 7.46606L3.92303 6.92529L3.07204 5.60159L2.23087 6.14236ZM2.37801 4.77273C2.01302 5.13773 1.95173 5.70795 2.23082 6.14228L3.0721 5.60168C3.04723 5.56298 3.05278 5.51218 3.08512 5.47984L2.37801 4.77273ZM4.77273 2.37801L2.37801 4.77273L3.08512 5.47984L5.47984 3.08512L4.77273 2.37801ZM6.14228 2.23082C5.70795 1.95173 5.13773 2.01302 4.77273 2.37801L5.47984 3.08512C5.51218 3.05278 5.56298 3.04723 5.60168 3.0721L6.14228 2.23082ZM7.46606 3.08186L6.14236 2.23087L5.60159 3.07204L6.92529 3.92303L7.46606 3.08186ZM8.23337 2.53246C7.79955 2.67416 7.37653 2.84961 6.96911 3.05672L7.42225 3.94816C7.78387 3.76434 8.15919 3.60868 8.54385 3.48304L8.23337 2.53246ZM8.23419 1.36437L7.90002 2.90154L8.8772 3.11397L9.21137 1.5768L8.23419 1.36437ZM9.30673 0.5C8.7906 0.5 8.34381 0.859731 8.23417 1.36445L9.21138 1.57672C9.22107 1.53211 9.26073 1.5 9.30673 1.5V0.5ZM12.6933 0.5H9.30673V1.5H12.6933V0.5ZM13.7658 1.36445C13.6562 0.859731 13.2094 0.5 12.6933 0.5V1.5C12.7393 1.5 12.7789 1.53211 12.7886 1.57672L13.7658 1.36445ZM14.1 2.90154L13.7658 1.36437L12.7886 1.5768L13.1228 3.11397L14.1 2.90154ZM15.0309 3.05672C14.6235 2.84961 14.2005 2.67416 13.7666 2.53246L13.4561 3.48304C13.8408 3.60868 14.2161 3.76434 14.5777 3.94816L15.0309 3.05672ZM15.8576 2.23087L14.5339 3.08186L15.0747 3.92303L16.3984 3.07204L15.8576 2.23087ZM17.2273 2.37801C16.8623 2.01302 16.292 1.95173 15.8577 2.23082L16.3983 3.0721C16.437 3.04723 16.4878 3.05278 16.5202 3.08512L17.2273 2.37801ZM19.622 4.77273L17.2273 2.37801L16.5202 3.08512L18.9149 5.47984L19.622 4.77273ZM19.7692 6.14228C20.0483 5.70795 19.987 5.13773 19.622 4.77273L18.9149 5.47984C18.9472 5.51218 18.9528 5.56298 18.9279 5.60168L19.7692 6.14228ZM18.9181 7.46606L19.7691 6.14236L18.928 5.60159L18.077 6.92529L18.9181 7.46606ZM19.4675 8.23337C19.3258 7.79955 19.1504 7.37653 18.9433 6.96911L18.0518 7.42225C18.2357 7.78387 18.3913 8.15919 18.517 8.54385L19.4675 8.23337ZM14.0857 11C14.0857 12.7009 12.7009 14.0857 11 14.0857V15.0857C13.2532 15.0857 15.0857 13.2532 15.0857 11H14.0857ZM11 7.91434C12.7009 7.91434 14.0857 9.29906 14.0857 11H15.0857C15.0857 8.74678 13.2532 6.91434 11 6.91434V7.91434ZM7.91434 11C7.91434 9.29906 9.29906 7.91434 11 7.91434V6.91434C8.74678 6.91434 6.91434 8.74678 6.91434 11H7.91434ZM11 14.0857C9.29906 14.0857 7.91434 12.7009 7.91434 11H6.91434C6.91434 13.2532 8.74678 15.0857 11 15.0857V14.0857Z" fill="#444444"/>
</svg>
