<svg width="20" height="18" viewBox="0 0 20 18" fill="none" xmlns="http://www.w3.org/2000/svg">
<path d="M1.94146 18H9.03852C10.1152 18.0067 10.9934 17.1175 11 16.0136V14.0777C11 13.8681 10.8343 13.6982 10.6298 13.6982C10.4255 13.6982 10.2596 13.8681 10.2596 14.0777V16.01C10.2555 16.6943 9.71073 17.2456 9.04327 17.2409H1.94146C1.28371 17.2466 0.745981 16.7043 0.740403 16.0297V16.01L0.740403 1.98994C0.735445 1.31541 1.2645 0.764351 1.92245 0.759056H9.03852C9.70578 0.751856 10.2526 1.30059 10.2596 1.98486V3.88202C10.2596 4.09169 10.4255 4.26154 10.6298 4.26154C10.8343 4.26154 11 4.09169 11 3.88202V1.98994C10.9952 0.885914 10.1185 -0.00485039 9.04162 2.09808e-05H1.94146C0.874267 -0.0050621 0.00497818 0.877867 2.00272e-05 1.97194L2.00272e-05 16.01C-0.00473118 17.1041 0.856501 17.9951 1.9239 18C1.92968 18 1.93568 18 1.94146 18Z" fill="#F5F5F7"/>
<path d="M18.6864 7.80468L5.38183 7.80468C5.17089 7.80468 5 7.98641 5 8.21023C5 8.43427 5.17089 8.61577 5.38183 8.61577L18.7712 8.61577L15.7374 12.3286C15.5994 12.4979 15.6164 12.754 15.7756 12.9007C15.935 13.0476 16.1762 13.0294 16.3142 12.8602L19.8525 8.53C19.9491 8.45034 20.004 8.3261 19.9998 8.1962C19.9955 8.0663 19.9329 7.94635 19.8312 7.87371L16.2959 4.11881C16.1468 3.9604 15.9051 3.9604 15.756 4.11881C15.6068 4.27723 15.6068 4.53409 15.756 4.69228L18.6864 7.80468Z" fill="#F5F5F7"/>
</svg>
