<svg width="15" height="15" viewBox="0 0 15 15" fill="none" xmlns="http://www.w3.org/2000/svg">
<path fill-rule="evenodd" clip-rule="evenodd" d="M0 7.5C0 3.36457 3.36457 0 7.5 0C11.6354 0 15 3.36457 15 7.5C15 11.6354 11.6354 15 7.5 15C3.36457 15 0 11.6354 0 7.5ZM0.93751 7.50003C0.93751 11.1186 3.88139 14.0625 7.5 14.0625C11.1186 14.0625 14.0625 11.1186 14.0625 7.5C14.0625 3.88139 11.1186 0.93751 7.5 0.93751C3.88139 0.93751 0.93751 3.88142 0.93751 7.50003Z" fill="#F45B5B"/>
<path d="M7.03125 10.3125H7.96876V11.25H7.03125V10.3125Z" fill="#F45B5B"/>
<path d="M7.03131 3.75H7.96877V9.37501H7.03131V3.75Z" fill="#F45B5B"/>
</svg>
