<svg width="15" height="14" viewBox="0 0 15 14" fill="none" xmlns="http://www.w3.org/2000/svg">
<path d="M3.19 9.00382L2.50642 12.889C2.44347 13.2455 2.594 13.6058 2.89403 13.8184C3.06385 13.9386 3.26488 14 3.46719 14C3.62228 14 3.77789 13.9639 3.92054 13.8906L7.49987 12.0563L11.0792 13.8906C11.2229 13.9641 11.3777 13.9998 11.5356 14C12.0732 13.999 12.5088 13.5739 12.5088 13.0498C12.5088 12.9768 12.5004 12.9058 12.4844 12.8373L11.81 9.00382L14.7058 6.25222C14.9713 5.99982 15.067 5.62222 14.9522 5.27802C14.8377 4.93407 14.5326 4.68341 14.1656 4.63145L10.1636 4.06455L8.37383 0.529534C8.2096 0.20538 7.87098 0 7.49987 0C7.12877 0 6.7899 0.20538 6.62566 0.529534L4.83612 4.06455L0.834411 4.63145C0.467365 4.68341 0.162255 4.93407 0.0477748 5.27802C-0.0669588 5.62222 0.0287371 5.99982 0.294249 6.25222L3.19 9.00382Z" fill="#F4E25B"/>
</svg>
